# Blender 3.4.1
# www.blender.org
mtllib Platform.mtl
o Platform
v 0.522813 0.043594 -0.003506
v 0.361563 0.048776 0.360767
v -0.002710 0.048776 0.511654
v -0.366983 0.048776 0.360767
v -0.517870 0.048776 -0.003506
v -0.366983 0.048776 -0.367779
v -0.002710 0.048776 -0.518666
v 0.368891 0.043594 -0.375107
v 0.522813 0.003409 -0.003506
v 0.368891 0.003409 0.368095
v -0.002710 0.003409 0.522017
v -0.374311 0.003409 0.368095
v -0.528233 0.003409 -0.003506
v -0.374311 0.003409 -0.375107
v -0.002710 0.003409 -0.529029
v 0.368891 0.003409 -0.375107
v -0.002719 -0.001773 -0.003496
v -0.002710 0.048776 -0.003506
v 0.475369 0.048776 -0.003506
v 0.335343 0.048776 0.334547
v -0.002710 0.048776 0.474573
v -0.340763 0.048776 0.334547
v -0.480789 0.048776 -0.003506
v -0.340763 0.048776 -0.341559
v -0.002710 0.048776 -0.481585
v 0.335343 0.048776 -0.341559
v 0.089824 0.048776 -0.003506
v 0.062722 0.048776 0.061926
v -0.002710 0.048776 0.089029
v -0.068142 0.048776 0.061926
v -0.095244 0.048776 -0.003506
v -0.068141 0.048776 -0.068937
v -0.002710 0.048776 -0.096040
v 0.062722 0.048776 -0.068937
v 0.328015 0.023565 0.327219
v 0.465006 0.023565 -0.003506
v 0.328015 0.023565 -0.334231
v -0.002710 0.023565 -0.471221
v -0.333435 0.023565 -0.334231
v -0.470426 0.023565 -0.003506
v -0.333435 0.023565 0.327219
v -0.002710 0.023565 0.464210
v 0.100188 0.023565 -0.003506
v 0.070050 0.023565 0.069254
v -0.002710 0.023565 0.099392
v -0.075469 0.023565 0.069254
v -0.105607 0.023565 -0.003506
v -0.075469 0.023565 -0.076265
v -0.002710 0.023565 -0.106403
v 0.070050 0.023565 -0.076265
v 0.512450 0.048776 -0.003506
v 0.368891 0.043594 0.368095
v -0.002710 0.043594 0.522017
v -0.374311 0.043594 0.368095
v -0.528233 0.043594 -0.003506
v -0.374311 0.043594 -0.375107
v -0.002710 0.043594 -0.529029
v 0.361563 0.048776 -0.367779
v 0.512450 -0.001773 -0.003506
v 0.361563 -0.001773 0.360768
v -0.002710 -0.001773 0.511654
v -0.366983 -0.001773 0.360767
v -0.517870 -0.001773 -0.003506
v -0.366983 -0.001773 -0.367779
v -0.002710 -0.001773 -0.518666
v 0.361563 -0.001773 -0.367779
v 0.465006 0.043594 -0.003506
v 0.328015 0.043594 0.327219
v -0.002710 0.043594 0.464210
v -0.333435 0.043594 0.327219
v -0.470426 0.043594 -0.003506
v -0.333435 0.043594 -0.334231
v -0.002710 0.043594 -0.471221
v 0.328015 0.043594 -0.334231
v 0.100188 0.043594 -0.003506
v 0.070050 0.043594 0.069254
v -0.002710 0.043594 0.099392
v -0.075469 0.043594 0.069254
v -0.105607 0.043594 -0.003506
v -0.075469 0.043594 -0.076265
v -0.002710 0.043594 -0.106403
v 0.070050 0.043594 -0.076265
v 0.188531 0.000000 -0.003506
v 0.132518 0.000000 0.131722
v -0.002710 0.000000 0.187736
v -0.137938 0.000000 0.131722
v -0.193951 0.000000 -0.003506
v -0.137938 -0.000000 -0.138734
v -0.002710 -0.000000 -0.194747
v 0.132518 -0.000000 -0.138734
v 0.171820 -0.027469 -0.035853
v 0.143575 -0.027469 0.097033
v 0.029637 -0.027469 0.171025
v -0.103249 -0.027469 0.142779
v -0.177240 -0.027469 0.028842
v -0.148994 -0.027469 -0.104044
v -0.035057 -0.027469 -0.178036
v 0.097829 -0.027469 -0.149790
v 0.151098 -0.052160 -0.062547
v 0.147798 -0.052160 0.063505
v 0.056332 -0.052160 0.150303
v -0.069720 -0.052160 0.147002
v -0.156518 -0.052160 0.055536
v -0.153217 -0.052160 -0.070516
v -0.061751 -0.052160 -0.157314
v 0.064300 -0.052160 -0.154013
v 0.128853 -0.074148 -0.084128
v 0.147328 -0.074148 0.032515
v 0.077912 -0.074148 0.128057
v -0.038731 -0.074148 0.146532
v -0.134273 -0.074148 0.077116
v -0.152747 -0.074148 -0.039527
v -0.083332 -0.074148 -0.135069
v 0.033311 -0.074148 -0.153543
v 0.103720 -0.094202 -0.099336
v 0.140310 -0.094202 0.003990
v 0.093120 -0.094202 0.102925
v -0.010205 -0.094202 0.139514
v -0.109140 -0.094202 0.092325
v -0.145730 -0.094202 -0.011001
v -0.098540 -0.094202 -0.109936
v 0.004785 -0.094202 -0.146525
v 0.082015 -0.112134 -0.113922
v 0.135276 -0.112134 -0.021672
v 0.107706 -0.112134 0.081220
v 0.015456 -0.112134 0.134480
v -0.087435 -0.112134 0.106910
v -0.140696 -0.112134 0.014660
v -0.113126 -0.112134 -0.088231
v -0.020876 -0.112134 -0.141491
v -0.002709 -0.112134 -0.003502
vn 0.9239 -0.0000 0.3827
vn 0.7071 -0.0000 0.7071
vn -0.0000 -0.0000 1.0000
vn -0.3827 -0.0000 0.9239
vn -0.9239 -0.0000 0.3827
vn -0.9239 -0.0000 -0.3827
vn -0.7071 -0.0000 -0.7071
vn -0.0000 -0.0000 -1.0000
vn 0.7071 -0.0000 -0.7071
vn 0.9239 -0.0000 -0.3827
vn 0.2826 -0.9593 -0.0000
vn 0.1998 -0.9593 0.1998
vn -0.0000 -1.0000 -0.0000
vn -0.0000 -0.9593 0.2826
vn -0.1998 -0.9593 0.1998
vn -0.2826 -0.9593 -0.0000
vn -0.1998 -0.9593 -0.1998
vn -0.0000 -0.9593 -0.2826
vn 0.1998 -0.9593 -0.1998
vn 0.1998 0.9593 0.1998
vn 0.2826 0.9593 -0.0000
vn -0.1741 0.9847 -0.0000
vn -0.1231 0.9847 -0.1231
vn -0.0000 0.9593 0.2826
vn -0.0000 0.9847 -0.1741
vn -0.1998 0.9593 0.1998
vn 0.1231 0.9847 -0.1231
vn -0.2826 0.9593 -0.0000
vn 0.1741 0.9847 -0.0000
vn -0.1998 0.9593 -0.1998
vn 0.1231 0.9847 0.1231
vn -0.0000 0.9593 -0.2826
vn -0.0000 0.9847 0.1741
vn 0.1998 0.9593 -0.1998
vn -0.1231 0.9847 0.1231
vn -0.0000 1.0000 -0.0000
vn -1.0000 -0.0000 -0.0000
vn -0.7071 -0.0000 0.7071
vn 0.3827 -0.0000 0.9239
vn 1.0000 -0.0000 -0.0000
vn 0.3827 -0.0000 -0.9239
vn -0.3827 -0.0000 -0.9239
vn 0.4473 0.8944 -0.0000
vn 0.3163 0.8944 0.3163
vn 0.3163 -0.8944 0.3163
vn 0.4473 -0.8944 -0.0000
vn -0.0000 0.8944 0.4473
vn -0.0000 -0.8944 0.4473
vn -0.3163 0.8944 0.3163
vn -0.3163 -0.8944 0.3163
vn -0.4473 0.8944 -0.0000
vn -0.4473 -0.8944 -0.0000
vn -0.3163 0.8944 -0.3163
vn -0.3163 -0.8944 -0.3163
vn -0.0000 0.8944 -0.4473
vn -0.0000 -0.8944 -0.4473
vn 0.3163 0.8944 -0.3163
vn 0.3163 -0.8944 -0.3163
vn 0.8905 -0.4405 0.1141
vn 0.5490 -0.4405 0.7103
vn 0.7335 -0.4488 0.5104
vn 0.8796 -0.4488 -0.1577
vn -0.1141 -0.4405 0.8905
vn 0.1577 -0.4488 0.8796
vn -0.7103 -0.4405 0.5490
vn -0.5104 -0.4488 0.7335
vn -0.8905 -0.4405 -0.1141
vn -0.8796 -0.4488 0.1577
vn -0.5490 -0.4405 -0.7103
vn -0.7335 -0.4488 -0.5104
vn 0.1141 -0.4405 -0.8905
vn -0.1577 -0.4488 -0.8796
vn 0.7103 -0.4405 -0.5490
vn 0.5104 -0.4488 -0.7335
vn 0.8164 -0.4418 0.3719
vn 0.8403 -0.4418 -0.3143
vn 0.3143 -0.4418 0.8403
vn -0.3719 -0.4418 0.8164
vn -0.8403 -0.4418 0.3143
vn -0.8164 -0.4418 -0.3719
vn -0.3143 -0.4418 -0.8403
vn 0.3719 -0.4418 -0.8164
vn 0.8678 -0.4499 0.2109
vn 0.7627 -0.4499 -0.4645
vn 0.4645 -0.4499 0.7627
vn -0.2109 -0.4499 0.8678
vn -0.7627 -0.4499 0.4645
vn -0.8678 -0.4499 -0.2109
vn -0.4645 -0.4499 -0.7627
vn 0.2109 -0.4499 -0.8678
vn 0.9295 -0.3630 0.0644
vn 0.7028 -0.3630 -0.6118
vn 0.6118 -0.3630 0.7028
vn -0.0644 -0.3630 0.9295
vn -0.7028 -0.3630 0.6118
vn -0.9295 -0.3630 -0.0644
vn -0.6118 -0.3630 -0.7028
vn 0.0644 -0.3630 -0.9295
vn 0.6787 -0.7122 -0.1791
vn 0.3533 -0.7122 -0.6065
vn 0.6065 -0.7122 0.3533
vn 0.1791 -0.7122 0.6787
vn -0.3533 -0.7122 0.6065
vn -0.6787 -0.7122 0.1791
vn -0.6065 -0.7122 -0.3533
vn -0.1791 -0.7122 -0.6787
vt 0.456245 0.936137
vt 0.460673 0.998000
vt 0.460673 0.002000
vt 0.460673 0.154421
vt 0.460673 0.307033
vt 0.460673 0.458054
vt 0.460673 0.599457
vt 0.460673 0.732057
vt 0.456245 0.846636
vt 0.430417 0.936137
vt 0.430417 0.998000
vt 0.430417 0.002000
vt 0.430417 0.154421
vt 0.430417 0.307033
vt 0.430417 0.458054
vt 0.430417 0.599457
vt 0.430417 0.732057
vt 0.430417 0.846636
vt 0.207284 0.207291
vt 0.547059 0.373531
vt 0.471153 0.936137
vt 0.471153 0.998000
vt 0.471153 0.002000
vt 0.471153 0.154421
vt 0.471153 0.307033
vt 0.471153 0.458054
vt 0.471153 0.599457
vt 0.471153 0.732057
vt 0.471153 0.846636
vt 0.577640 0.360710
vt 0.559617 0.342841
vt 0.534238 0.342950
vt 0.516368 0.360973
vt 0.516477 0.386353
vt 0.534500 0.404222
vt 0.559880 0.404113
vt 0.577749 0.386090
vt 0.320172 0.480350
vt 0.488214 0.998000
vt 0.488214 0.002000
vt 0.374763 0.612141
vt 0.488214 0.936137
vt 0.320172 0.743932
vt 0.488214 0.846636
vt 0.188381 0.798522
vt 0.488214 0.732057
vt 0.056590 0.743932
vt 0.488214 0.599457
vt 0.002000 0.612141
vt 0.488214 0.458054
vt 0.056590 0.480350
vt 0.488214 0.307033
vt 0.188381 0.425760
vt 0.488214 0.154421
vt 0.229385 0.612141
vt 0.592556 0.354457
vt 0.217375 0.583147
vt 0.565742 0.327872
vt 0.188381 0.571137
vt 0.527984 0.328034
vt 0.159387 0.583147
vt 0.501400 0.354847
vt 0.147377 0.612141
vt 0.501562 0.392606
vt 0.159387 0.641135
vt 0.528375 0.419191
vt 0.188381 0.653145
vt 0.566133 0.419029
vt 0.217375 0.641135
vt 0.592718 0.392215
vt 0.460673 0.936137
vt 0.456245 0.998000
vt 0.456245 0.002000
vt 0.456245 0.154421
vt 0.456245 0.307033
vt 0.456245 0.458054
vt 0.456245 0.599457
vt 0.456245 0.732057
vt 0.460673 0.846636
vt 0.412574 0.207287
vt 0.425760 0.936137
vt 0.352447 0.352447
vt 0.425760 0.998000
vt 0.425760 0.002000
vt 0.207287 0.412574
vt 0.425760 0.154421
vt 0.062127 0.352447
vt 0.425760 0.307033
vt 0.002000 0.207287
vt 0.425760 0.458054
vt 0.062127 0.062127
vt 0.425760 0.599457
vt 0.207287 0.002000
vt 0.425760 0.732057
vt 0.352447 0.062127
vt 0.425760 0.846636
vt 0.475422 0.936137
vt 0.475422 0.998000
vt 0.475422 0.002000
vt 0.475422 0.154421
vt 0.475422 0.307033
vt 0.475422 0.458054
vt 0.475422 0.599457
vt 0.475422 0.732057
vt 0.475422 0.846636
vt 0.580874 0.359354
vt 0.560945 0.339595
vt 0.532882 0.339716
vt 0.513123 0.359645
vt 0.513243 0.387708
vt 0.533172 0.407467
vt 0.561236 0.407347
vt 0.580994 0.387418
vt 0.556619 0.284670
vt 0.525851 0.314686
vt 0.581486 0.002000
vt 0.599862 0.040988
vt 0.611143 0.082717
vt 0.614940 0.125800
vt 0.611141 0.168880
vt 0.599862 0.210596
vt 0.581503 0.249580
vt 0.549570 0.266626
vt 0.522196 0.295682
vt 0.562106 0.002753
vt 0.580594 0.038278
vt 0.592614 0.076654
vt 0.597751 0.116586
vt 0.595834 0.156806
vt 0.586925 0.196045
vt 0.571336 0.233039
vt 0.542653 0.250397
vt 0.518412 0.278525
vt 0.544558 0.003920
vt 0.562979 0.036276
vt 0.575582 0.071591
vt 0.581855 0.108621
vt 0.581575 0.146189
vt 0.574751 0.183115
vt 0.561625 0.218224
vt 0.536103 0.235907
vt 0.514586 0.263211
vt 0.528821 0.005084
vt 0.547081 0.034742
vt 0.560154 0.067308
vt 0.567398 0.101710
vt 0.568545 0.136863
vt 0.563553 0.171668
vt 0.552597 0.205036
vt 0.529459 0.222681
vt 0.510673 0.249178
vt 0.514354 0.006691
vt 0.532282 0.033778
vt 0.545707 0.063820
vt 0.553767 0.095760
vt 0.556157 0.128630
vt 0.552794 0.161409
vt 0.543787 0.193078
vt 0.523589 0.210945
vt 0.100986 0.832930
vt 0.506501 0.236901
vt 0.501400 0.007342
vt 0.111973 0.873932
vt 0.519178 0.032898
vt 0.090749 0.910693
vt 0.532944 0.060738
vt 0.049747 0.921679
vt 0.541726 0.090514
vt 0.012986 0.900456
vt 0.545209 0.121370
vt 0.002000 0.859454
vt 0.543280 0.152360
vt 0.023224 0.822693
vt 0.535996 0.182521
vt 0.064225 0.811707
vt 0.056986 0.866695
s 1
usemtl Material_#2
f 1/1/1 52/72/2 10/11/2 9/10/1
f 52/73/2 53/74/3 11/13/3 10/12/2
f 53/74/3 54/75/4 12/14/4 11/13/3
f 54/75/5 55/76/5 13/15/5 12/14/5
f 55/76/6 56/77/7 14/16/7 13/15/6
f 56/77/7 57/78/8 15/17/8 14/16/7
f 57/78/8 8/9/9 16/18/9 15/17/8
f 8/9/9 1/1/10 9/10/10 16/18/9
f 59/80/11 60/82/12 17/19/13
f 60/82/12 61/85/14 17/19/13
f 61/85/14 62/87/15 17/19/13
f 62/87/15 63/89/16 17/19/13
f 63/89/16 64/91/17 17/19/13
f 64/91/17 65/93/18 17/19/13
f 65/93/18 66/95/19 17/19/13
f 66/95/19 59/80/11 17/19/13
f 2/2/20 51/71/21 19/21/22 20/22/23
f 3/4/24 2/3/20 20/23/23 21/24/25
f 4/5/26 3/4/24 21/24/25 22/25/27
f 5/6/28 4/5/26 22/25/27 23/26/29
f 6/7/30 5/6/28 23/26/29 24/27/31
f 7/8/32 6/7/30 24/27/31 25/28/33
f 58/79/34 7/8/32 25/28/33 26/29/35
f 58/79/34 26/29/35 19/21/22 51/71/21
f 43/55/36 44/57/36 35/38/36 36/41/36
f 44/57/36 45/59/36 42/53/36 35/38/36
f 45/59/36 46/61/36 41/51/36 42/53/36
f 46/61/36 47/63/36 40/49/36 41/51/36
f 47/63/36 48/65/36 39/47/36 40/49/36
f 48/65/36 49/67/36 38/45/36 39/47/36
f 49/67/36 50/69/36 37/43/36 38/45/36
f 37/43/36 50/69/36 43/55/36 36/41/36
f 27/30/21 18/20/36 28/31/20
f 28/31/20 18/20/36 29/32/24
f 29/32/24 18/20/36 30/33/26
f 30/33/26 18/20/36 31/34/28
f 31/34/28 18/20/36 32/35/30
f 32/35/30 18/20/36 33/36/32
f 33/36/32 18/20/36 34/37/34
f 34/37/34 18/20/36 27/30/21
f 68/98/6 67/97/37 36/42/37 35/39/6
f 67/97/37 74/105/38 37/44/38 36/42/37
f 74/105/38 73/104/4 38/46/4 37/44/38
f 73/104/39 72/103/2 39/48/2 38/46/39
f 72/103/2 71/102/40 40/50/40 39/48/2
f 71/102/40 70/101/10 41/52/10 40/50/40
f 70/101/41 69/100/8 42/54/8 41/52/41
f 69/100/8 68/99/42 35/40/42 42/54/8
f 75/106/1 76/107/2 44/58/2 43/56/1
f 76/107/2 77/108/39 45/60/39 44/58/2
f 77/108/4 78/109/38 46/62/38 45/60/4
f 78/109/38 79/110/5 47/64/5 46/62/38
f 79/110/6 80/111/7 48/66/7 47/64/6
f 80/111/7 81/112/42 49/68/42 48/66/7
f 81/112/41 82/113/9 50/70/9 49/68/41
f 82/113/9 75/106/10 43/56/10 50/70/9
f 1/1/43 51/71/21 2/2/20 52/72/44
f 10/11/45 60/83/12 59/81/11 9/10/46
f 52/73/44 2/3/20 3/4/24 53/74/47
f 11/13/48 61/86/14 60/84/12 10/12/45
f 53/74/47 3/4/24 4/5/26 54/75/49
f 12/14/50 62/88/15 61/86/14 11/13/48
f 54/75/49 4/5/26 5/6/28 55/76/51
f 13/15/52 63/90/16 62/88/15 12/14/50
f 55/76/51 5/6/28 6/7/30 56/77/53
f 14/16/54 64/92/17 63/90/16 13/15/52
f 56/77/53 6/7/30 7/8/32 57/78/55
f 15/17/56 65/94/18 64/92/17 14/16/54
f 57/78/55 7/8/32 58/79/34 8/9/57
f 16/18/58 66/96/19 65/94/18 15/17/56
f 8/9/57 58/79/34 51/71/21 1/1/43
f 9/10/46 59/81/11 66/96/19 16/18/58
f 68/98/53 20/22/23 19/21/22 67/97/51
f 69/100/55 21/24/25 20/23/23 68/99/53
f 70/101/57 22/25/27 21/24/25 69/100/55
f 71/102/43 23/26/29 22/25/27 70/101/57
f 72/103/44 24/27/31 23/26/29 71/102/43
f 73/104/47 25/28/33 24/27/31 72/103/44
f 74/105/49 26/29/35 25/28/33 73/104/47
f 67/97/51 19/21/22 26/29/35 74/105/49
f 75/106/43 27/30/21 28/31/20 76/107/44
f 76/107/44 28/31/20 29/32/24 77/108/47
f 77/108/47 29/32/24 30/33/26 78/109/49
f 78/109/49 30/33/26 31/34/28 79/110/51
f 79/110/51 31/34/28 32/35/30 80/111/53
f 80/111/53 32/35/30 33/36/32 81/112/55
f 81/112/55 33/36/32 34/37/34 82/113/57
f 82/113/57 34/37/34 27/30/21 75/106/43
f 83/114/59 84/115/60 92/124/61 91/123/62
f 84/116/60 85/117/63 93/126/64 92/125/61
f 85/117/63 86/118/65 94/127/66 93/126/64
f 86/118/65 87/119/67 95/128/68 94/127/66
f 87/119/67 88/120/69 96/129/70 95/128/68
f 88/120/69 89/121/71 97/130/72 96/129/70
f 89/121/71 90/122/73 98/131/74 97/130/72
f 90/122/73 83/114/59 91/123/62 98/131/74
f 91/123/62 92/124/61 100/133/75 99/132/76
f 92/125/61 93/126/64 101/135/77 100/134/75
f 93/126/64 94/127/66 102/136/78 101/135/77
f 94/127/66 95/128/68 103/137/79 102/136/78
f 95/128/68 96/129/70 104/138/80 103/137/79
f 96/129/70 97/130/72 105/139/81 104/138/80
f 97/130/72 98/131/74 106/140/82 105/139/81
f 98/131/74 91/123/62 99/132/76 106/140/82
f 99/132/76 100/133/75 108/142/83 107/141/84
f 100/134/75 101/135/77 109/144/85 108/143/83
f 101/135/77 102/136/78 110/145/86 109/144/85
f 102/136/78 103/137/79 111/146/87 110/145/86
f 103/137/79 104/138/80 112/147/88 111/146/87
f 104/138/80 105/139/81 113/148/89 112/147/88
f 105/139/81 106/140/82 114/149/90 113/148/89
f 106/140/82 99/132/76 107/141/84 114/149/90
f 107/141/84 108/142/83 116/151/91 115/150/92
f 108/143/83 109/144/85 117/153/93 116/152/91
f 109/144/85 110/145/86 118/154/94 117/153/93
f 110/145/86 111/146/87 119/155/95 118/154/94
f 111/146/87 112/147/88 120/156/96 119/155/95
f 112/147/88 113/148/89 121/157/97 120/156/96
f 113/148/89 114/149/90 122/158/98 121/157/97
f 114/149/90 107/141/84 115/150/92 122/158/98
f 115/150/92 116/151/91 124/161/99 123/159/100
f 116/152/91 117/153/93 125/164/101 124/162/99
f 117/153/93 118/154/94 126/166/102 125/164/101
f 118/154/94 119/155/95 127/168/103 126/166/102
f 119/155/95 120/156/96 128/170/104 127/168/103
f 120/156/96 121/157/97 129/172/105 128/170/104
f 121/157/97 122/158/98 130/174/106 129/172/105
f 122/158/98 115/150/92 123/159/100 130/174/106
f 123/160/100 124/163/99 131/176/13
f 124/163/99 125/165/101 131/176/13
f 125/165/101 126/167/102 131/176/13
f 126/167/102 127/169/103 131/176/13
f 127/169/103 128/171/104 131/176/13
f 128/171/104 129/173/105 131/176/13
f 129/173/105 130/175/106 131/176/13
f 130/175/106 123/160/100 131/176/13
